<?xml version="1.0" standalone="no"?>
<!DOCTYPE svg PUBLIC "-//W3C//DTD SVG 20010904//EN"
 "http://www.w3.org/TR/2001/REC-SVG-20010904/DTD/svg10.dtd">
<svg version="1.0" xmlns="http://www.w3.org/2000/svg"
 width="474.000000pt" height="474.000000pt" viewBox="0 0 474.000000 474.000000"
 preserveAspectRatio="xMidYMid meet">

<g transform="translate(0.000000,474.000000) scale(0.100000,-0.100000)"
fill="#ffffff" stroke="none">
<path d="M993 4700 l-33 -37 0 -222 0 -221 -74 0 c-164 0 -257 -44 -324 -153
-32 -53 -36 -66 -44 -169 -5 -62 -10 -113 -12 -115 -2 -2 -104 -7 -227 -10
l-224 -6 -27 -30 c-39 -41 -39 -105 -1 -147 25 -28 30 -30 103 -30 42 0 145
-3 228 -7 l152 -6 0 -142 0 -142 -227 -7 -228 -7 -27 -26 c-23 -22 -28 -35
-28 -75 0 -42 4 -52 32 -78 l33 -29 176 -1 c97 0 197 -3 223 -6 l46 -7 0 -142
0 -143 -223 -4 c-220 -3 -223 -3 -254 -28 -28 -22 -32 -31 -32 -78 -1 -47 2
-55 32 -82 l32 -29 223 -1 222 0 0 -150 0 -150 -222 0 -223 -1 -33 -29 c-28
-26 -32 -36 -32 -80 0 -44 4 -54 33 -80 l32 -29 223 -1 222 0 0 -150 0 -150
-222 0 -223 -1 -33 -29 c-28 -26 -32 -36 -32 -80 0 -44 4 -54 33 -80 l32 -29
223 -1 222 0 0 -150 0 -150 -222 0 -223 -1 -33 -29 c-29 -27 -32 -35 -31 -82
0 -47 4 -56 31 -77 30 -24 36 -25 253 -29 l222 -5 7 -60 c3 -33 6 -79 6 -102
0 -54 49 -154 97 -196 62 -54 116 -72 233 -78 l105 -6 3 -226 2 -226 35 -32
c48 -43 102 -43 150 1 l35 31 0 229 0 229 148 -3 147 -3 3 -226 2 -226 35 -32
c50 -45 105 -44 151 4 l34 34 0 226 0 226 148 -3 147 -3 5 -226 5 -225 27 -32
c23 -27 33 -32 72 -32 36 0 51 6 78 30 l33 30 3 230 3 231 147 -3 147 -3 5
-226 5 -225 27 -32 c23 -27 33 -32 72 -32 36 0 51 6 73 28 25 24 29 37 35 112
3 47 7 151 7 233 l1 147 144 0 143 0 7 -77 c3 -42 6 -144 6 -227 l1 -151 29
-33 c26 -28 36 -32 77 -31 41 0 52 5 75 33 26 32 26 32 34 259 l7 227 142 0
142 0 6 -137 c4 -75 7 -177 7 -227 1 -87 2 -93 30 -124 25 -27 37 -32 75 -32
38 0 50 5 75 33 29 31 29 35 30 138 0 58 3 160 6 226 l7 121 106 4 c90 3 114
8 156 30 116 61 166 148 173 304 l5 101 223 5 223 5 35 29 c29 25 35 36 35 72
1 34 -5 49 -30 77 l-32 35 -226 2 -226 3 -3 147 -3 148 223 0 223 1 38 34 c50
47 52 99 5 150 l-31 35 -229 0 -228 0 0 150 0 150 225 0 226 0 34 34 c29 27
35 40 35 76 0 36 -6 49 -35 76 l-34 34 -226 0 -225 0 0 150 0 150 228 0 229 0
31 35 c25 27 32 43 32 75 0 34 -6 46 -36 73 -21 17 -42 32 -48 33 -6 0 -107 2
-223 2 l-213 2 0 144 0 143 38 7 c20 3 123 6 228 6 l191 0 31 35 c26 28 32 43
31 77 0 36 -6 48 -33 70 -32 26 -32 26 -259 34 l-227 7 0 142 0 142 143 6 c78
4 180 7 227 7 80 1 87 2 118 30 27 25 32 37 32 75 0 38 -5 50 -32 75 -32 29
-35 29 -148 30 -63 0 -165 3 -226 7 l-112 6 -4 102 c-5 121 -33 190 -98 249
-69 62 -112 78 -231 84 l-106 5 -6 126 c-4 69 -7 171 -7 227 l0 101 -35 31
c-47 44 -93 44 -140 0 l-35 -31 0 -101 c0 -56 -3 -158 -7 -228 l-6 -128 -142
0 -142 0 -7 228 -8 227 -31 33 c-43 44 -94 45 -142 0 l-35 -31 0 -137 c0 -75
-3 -178 -6 -228 l-7 -92 -142 0 -142 0 -6 225 -6 226 -28 34 c-24 28 -35 34
-71 34 -34 1 -49 -5 -77 -31 l-35 -31 0 -213 c0 -117 -3 -219 -6 -228 -5 -14
-28 -16 -150 -16 l-144 0 -2 213 c0 116 -2 217 -2 223 -1 6 -16 27 -33 48 -27
30 -39 36 -73 36 -32 0 -48 -7 -75 -32 l-35 -31 0 -229 0 -228 -150 0 -150 0
0 223 -1 222 -34 38 c-30 31 -42 37 -77 37 -35 0 -47 -6 -75 -36 l-33 -37 0
-223 0 -224 -150 0 -150 0 0 225 c0 226 0 226 -24 248 -46 43 -55 47 -93 46
-31 -1 -44 -8 -70 -39z m967 -1103 l0 -184 -295 -6 c-328 -6 -336 -7 -382 -77
-22 -32 -23 -40 -23 -291 l0 -259 -150 0 -150 0 0 500 0 500 500 0 500 0 0
-183z m668 83 c2 -52 0 -129 -3 -170 l-7 -75 -272 -274 -273 -274 -53 18
c-136 45 -287 -13 -356 -137 -26 -48 -29 -62 -29 -143 0 -80 3 -95 27 -136 33
-55 87 -105 142 -130 57 -26 186 -26 243 0 54 25 120 92 145 148 26 59 28 185
3 232 -9 18 -14 36 -10 39 190 190 490 499 517 533 63 77 70 104 76 297 l5
172 253 0 254 0 0 -369 0 -368 -92 -7 c-50 -3 -148 -6 -218 -6 -124 0 -127 -1
-176 -31 -75 -48 -309 -286 -333 -339 -14 -32 -22 -79 -26 -160 -8 -137 -11
-142 -148 -278 -72 -72 -103 -95 -133 -102 -21 -5 -301 -10 -621 -10 l-583 0
0 259 0 259 173 4 c188 3 207 9 244 65 16 24 19 61 23 293 l5 265 305 5 c412
7 388 -12 397 311 l6 209 256 -2 256 -3 3 -95z m1150 -1312 l2 -1408 -169 0
-170 0 -3 278 c-4 323 2 305 -122 438 -42 45 -80 94 -86 109 -5 14 -10 87 -10
160 l0 135 43 21 c110 56 167 136 174 248 9 118 -57 235 -162 286 -59 29 -204
28 -260 -2 -56 -30 -108 -83 -136 -140 -32 -65 -33 -177 -3 -243 26 -56 85
-115 145 -145 l46 -24 5 -164 c5 -198 10 -209 133 -346 l85 -93 0 -259 0 -259
-1165 0 -1165 0 0 163 0 164 314 7 c227 5 327 10 363 21 34 10 71 34 126 83
46 42 89 72 108 76 17 3 112 6 210 6 l179 0 31 -55 c124 -221 415 -218 529 5
16 30 20 59 20 128 0 81 -2 92 -32 142 -122 202 -404 195 -514 -14 l-28 -54
-216 -5 c-118 -2 -231 -10 -251 -16 -20 -6 -76 -46 -124 -88 l-87 -76 -314 -5
-314 -5 0 261 0 261 623 3 622 3 46 23 c30 14 93 71 177 156 148 152 162 179
162 317 0 132 -1 130 149 280 l136 136 85 6 c47 4 150 7 230 7 126 0 149 3
177 20 69 42 68 32 71 460 1 212 5 391 7 398 4 10 42 12 167 10 l163 -3 3
-1407z m-1779 383 c97 -68 85 -209 -21 -257 -130 -59 -254 99 -173 219 14 20
27 37 28 37 1 0 20 7 42 14 46 16 89 12 124 -13z m1208 -251 c111 -50 110
-211 0 -264 -47 -22 -84 -20 -131 7 -45 25 -76 77 -76 125 0 52 38 112 85 133
51 23 70 23 122 -1z m-576 -823 c90 -60 89 -184 -1 -245 -29 -20 -44 -23 -88
-20 -45 4 -59 10 -90 42 -35 34 -37 40 -37 101 0 57 3 67 30 95 37 39 58 49
111 49 27 1 53 -7 75 -22z"/>
</g>
</svg>
