<?xml version="1.0" standalone="no"?>
<!DOCTYPE svg PUBLIC "-//W3C//DTD SVG 20010904//EN"
 "http://www.w3.org/TR/2001/REC-SVG-20010904/DTD/svg10.dtd">
<svg version="1.0" xmlns="http://www.w3.org/2000/svg"
 width="474.000000pt" height="556.000000pt" viewBox="0 0 474.000000 556.000000"
 preserveAspectRatio="xMidYMid meet">

<g transform="translate(0.000000,556.000000) scale(0.100000,-0.100000)"
fill="#ffffff" stroke="none">
<path d="M230 5552 c0 -4 -15 -14 -34 -20 -54 -20 -129 -93 -156 -153 -14 -30
-28 -55 -32 -57 -10 -5 -10 -5079 -1 -5084 5 -1 19 -27 33 -57 27 -60 102
-133 156 -153 19 -6 34 -16 34 -20 0 -10 2437 -11 2442 0 2 4 29 20 61 36 68
34 120 92 148 166 19 49 19 107 19 2570 l0 2519 -21 58 c-26 67 -94 140 -157
168 -23 10 -42 22 -42 27 0 4 -551 8 -1225 8 -674 0 -1225 -4 -1225 -8z m2413
-173 c47 -24 76 -62 87 -113 8 -36 10 -761 8 -2516 l-3 -2465 -21 -35 c-11
-19 -35 -45 -54 -57 l-33 -23 -1172 0 -1172 0 -33 22 c-18 13 -43 36 -54 51
l-21 28 -3 2496 c-2 2478 -2 2497 18 2538 12 25 34 49 57 63 l38 22 1168 0
c844 0 1174 -3 1190 -11z"/>
<path d="M544 5106 c-64 -28 -64 -26 -64 -394 l0 -334 34 -34 34 -34 912 0
912 0 34 34 34 34 0 334 c0 370 1 366 -66 394 -49 20 -1783 20 -1830 0z m1786
-646 l0 -40 -165 0 -165 0 0 40 0 40 165 0 165 0 0 -40z"/>
<path d="M534 3949 c-11 -6 -28 -23 -37 -39 -15 -25 -17 -68 -17 -358 0 -317
1 -330 20 -355 12 -15 38 -31 58 -37 51 -14 1753 -14 1804 0 22 6 46 23 58 39
19 28 20 43 20 355 0 212 -4 333 -11 349 -6 13 -23 31 -39 40 -26 16 -106 17
-932 16 -586 0 -910 -4 -924 -10z m1764 -676 l-3 -38 -162 -3 -163 -2 0 40 0
40 166 0 165 0 -3 -37z"/>
<path d="M480 2565 l0 -85 983 2 982 3 3 83 3 82 -986 0 -985 0 0 -85z"/>
<path d="M480 2125 l0 -85 985 0 985 0 0 85 0 85 -985 0 -985 0 0 -85z"/>
<path d="M472 1698 l3 -83 983 -3 982 -2 0 85 0 85 -985 0 -986 0 3 -82z"/>
<path d="M1339 1177 c-73 -31 -122 -69 -158 -124 -95 -143 -76 -331 43 -441
178 -164 447 -114 551 104 25 50 29 72 29 139 0 103 -34 183 -106 251 -68 63
-125 87 -223 91 -67 3 -89 0 -136 -20z m217 -172 c128 -75 102 -268 -42 -315
-78 -26 -182 23 -214 100 -18 44 -8 130 20 169 53 75 153 94 236 46z"/>
<path d="M2861 5508 c32 -28 53 -61 70 -110 l18 -53 883 -321 c486 -177 884
-321 886 -319 2 2 -2 22 -9 45 -28 92 7 76 -960 438 -487 183 -890 332 -894
332 -5 0 -2 -6 6 -12z"/>
<path d="M2960 2734 c0 -1367 3 -2483 8 -2481 118 68 295 166 932 522 421 235
782 437 803 448 l37 21 0 1680 -1 1681 -82 26 c-45 15 -242 83 -437 152 -1058
373 -1241 437 -1250 437 -7 0 -10 -856 -10 -2486z"/>
</g>
</svg>
