<?xml version="1.0" standalone="no"?>
<!DOCTYPE svg PUBLIC "-//W3C//DTD SVG 20010904//EN"
 "http://www.w3.org/TR/2001/REC-SVG-20010904/DTD/svg10.dtd">
<svg version="1.0" xmlns="http://www.w3.org/2000/svg"
 width="474.000000pt" height="474.000000pt" viewBox="0 0 474.000000 474.000000"
 preserveAspectRatio="xMidYMid meet">

<g transform="translate(0.000000,474.000000) scale(0.100000,-0.100000)"
fill="#ffffff" stroke="none">
<path d="M576 4724 c-3 -8 -6 -815 -6 -1792 0 -1663 1 -1778 17 -1789 12 -9
61 -13 160 -13 l143 0 0 -282 c0 -156 4 -309 10 -342 27 -163 151 -303 313
-351 28 -8 86 -15 129 -15 76 0 78 -1 93 -29 18 -35 75 -91 93 -91 6 0 12 -4
12 -10 0 -7 283 -10 830 -10 547 0 830 3 830 10 0 6 6 10 13 10 18 0 75 57 93
92 14 27 17 28 90 28 178 0 329 92 404 244 43 88 50 148 50 464 l0 282 141 0
c77 0 149 5 160 10 19 11 19 41 19 1790 0 978 -3 1785 -6 1794 -6 15 -173 16
-1794 16 -1614 0 -1788 -2 -1794 -16z m2044 -310 c537 -89 993 -476 1168 -989
61 -177 76 -279 76 -490 0 -159 -4 -207 -23 -295 -116 -542 -490 -961 -1013
-1134 -282 -93 -637 -93 -916 1 -528 177 -895 587 -1014 1133 -32 151 -32 437
1 590 68 319 207 569 439 792 340 326 813 470 1282 392z m-1143 -3538 l2 -250
-27 -48 -27 -48 -57 0 c-92 0 -88 -13 -88 316 l0 285 98 -3 97 -3 2 -249z
m1395 23 c2 -127 1 -233 -1 -235 -2 -2 -229 -4 -503 -4 l-498 0 0 235 0 235
500 0 499 0 3 -231z m588 -53 c0 -329 4 -316 -88 -316 l-57 0 -27 49 -28 48 1
244 c0 134 3 247 5 251 3 5 48 8 100 8 l94 0 0 -284z"/>
<path d="M2164 4185 c-93 -14 -224 -52 -224 -64 0 -4 14 -39 31 -77 38 -82
168 -427 163 -432 -1 -2 -74 41 -161 95 -189 118 -368 223 -381 223 -21 0
-175 -155 -237 -239 -79 -105 -165 -275 -199 -396 -41 -146 -43 -139 39 -148
81 -8 431 -65 459 -73 13 -5 -27 -30 -145 -93 -90 -47 -215 -115 -276 -151
-131 -75 -127 -65 -88 -213 58 -226 180 -433 350 -597 l57 -55 24 30 c114 145
270 337 299 370 l36 40 -5 -65 c-3 -36 -9 -178 -12 -315 -6 -207 -4 -252 7
-261 21 -17 125 -50 219 -71 120 -25 393 -25 505 0 99 23 175 47 175 56 0 3
-17 47 -39 96 -33 78 -161 410 -161 420 0 2 68 -39 151 -92 184 -115 386 -233
399 -233 18 0 206 195 254 263 86 123 172 316 201 452 3 17 8 37 11 46 3 13
-13 17 -98 27 -123 15 -401 60 -428 70 -15 6 12 24 123 82 178 94 378 207 396
226 12 11 13 24 3 77 -43 234 -179 483 -357 657 l-67 65 -28 -35 c-148 -185
-275 -341 -300 -370 l-31 -35 5 65 c10 122 17 565 9 576 -12 18 -164 62 -266
79 -109 18 -300 18 -413 0z m307 -935 c59 -16 131 -70 171 -130 148 -219 -9
-512 -272 -512 -248 1 -402 252 -291 476 73 148 222 211 392 166z"/>
</g>
</svg>
