<?xml version="1.0" standalone="no"?>
<!DOCTYPE svg PUBLIC "-//W3C//DTD SVG 20010904//EN"
 "http://www.w3.org/TR/2001/REC-SVG-20010904/DTD/svg10.dtd">
<svg version="1.0" xmlns="http://www.w3.org/2000/svg"
 width="474.000000pt" height="474.000000pt" viewBox="0 0 474.000000 474.000000"
 preserveAspectRatio="xMidYMid meet">

<g transform="translate(0.000000,474.000000) scale(0.100000,-0.100000)"
fill="#ffffff" stroke="none">
<path d="M738 3928 c-2 -7 -4 -38 -3 -68 l0 -55 117 -3 118 -3 2 -1497 3
-1497 65 0 65 0 3 298 2 297 145 0 144 0 3 -148 3 -147 863 -3 862 -2 0 150 0
150 395 0 c348 0 398 2 429 17 69 33 66 -16 66 962 l0 881 -34 38 -34 37
-1421 3 -1421 2 0 300 0 300 -184 0 c-138 0 -185 -3 -188 -12z m3142 -1558 l0
-830 -1370 0 -1370 0 0 830 0 830 1370 0 1370 0 0 -830z m-890 -1070 l0 -60
-725 0 -725 0 0 60 0 60 725 0 725 0 0 -60z"/>
<path d="M1672 2833 l3 -78 30 0 30 0 3 78 3 77 -36 0 -36 0 3 -77z"/>
<path d="M1780 2835 c0 -71 1 -75 24 -81 39 -10 46 2 46 82 l0 74 -35 0 -35 0
0 -75z"/>
<path d="M1900 2832 l0 -78 28 2 c15 1 30 2 35 3 4 0 7 35 7 76 l0 75 -35 0
-35 0 0 -78z"/>
<path d="M2010 2836 c0 -78 5 -86 47 -78 21 4 23 9 23 78 l0 74 -35 0 -35 0 0
-74z"/>
<path d="M2130 2835 c0 -59 3 -75 15 -76 53 -5 50 -8 53 74 l3 77 -36 0 -35 0
0 -75z"/>
<path d="M3090 2779 c-128 -21 -246 -112 -307 -237 -37 -73 -38 -80 -38 -181
0 -102 1 -109 37 -182 44 -90 114 -160 205 -205 54 -27 66 -29 173 -29 114 0
117 1 192 38 126 62 203 166 229 310 52 280 -204 533 -491 486z m140 -291
c166 -86 47 -335 -124 -260 -56 25 -86 70 -86 130 0 69 37 124 96 142 47 14
67 11 114 -12z"/>
<path d="M1622 2668 c-17 -17 -17 -599 0 -616 9 -9 93 -12 315 -12 289 0 303
1 313 19 15 29 14 593 -2 609 -17 17 -609 17 -626 0z"/>
<path d="M1372 2588 l3 -33 75 0 75 0 3 33 3 32 -81 0 -81 0 3 -32z"/>
<path d="M2332 2588 l3 -33 75 0 75 0 3 33 3 32 -81 0 -81 0 3 -32z"/>
<path d="M1370 2475 l0 -35 80 0 80 0 0 35 0 35 -80 0 -80 0 0 -35z"/>
<path d="M2330 2475 l0 -35 80 0 80 0 0 35 0 35 -80 0 -80 0 0 -35z"/>
<path d="M1374 2386 c-3 -8 -4 -25 -2 -38 3 -22 7 -23 78 -23 l75 0 0 35 0 35
-73 3 c-56 2 -74 0 -78 -12z"/>
<path d="M2334 2386 c-3 -8 -4 -25 -2 -38 3 -22 7 -23 78 -23 l75 0 0 35 0 35
-73 3 c-56 2 -74 0 -78 -12z"/>
<path d="M1370 2245 l0 -35 80 0 80 0 0 35 0 35 -80 0 -80 0 0 -35z"/>
<path d="M2330 2245 l0 -35 80 0 80 0 0 35 0 35 -80 0 -80 0 0 -35z"/>
<path d="M1370 2135 l0 -35 80 0 80 0 0 35 0 35 -80 0 -80 0 0 -35z"/>
<path d="M2330 2135 l0 -35 81 0 80 0 -3 33 -3 32 -77 3 -78 3 0 -36z"/>
<path d="M1672 1883 l3 -78 33 -3 32 -3 0 80 0 81 -35 0 -36 0 3 -77z"/>
<path d="M1782 1883 l3 -78 33 -3 32 -3 0 80 0 81 -35 0 -36 0 3 -77z"/>
<path d="M1900 1879 l0 -80 33 3 32 3 3 78 3 77 -36 0 -35 0 0 -81z"/>
<path d="M2012 1883 l3 -78 33 -3 32 -3 0 80 0 81 -35 0 -36 0 3 -77z"/>
<path d="M2130 1879 l0 -80 33 3 32 3 3 78 3 77 -36 0 -35 0 0 -81z"/>
</g>
</svg>
