<?xml version="1.0" standalone="no"?>
<!DOCTYPE svg PUBLIC "-//W3C//DTD SVG 20010904//EN"
 "http://www.w3.org/TR/2001/REC-SVG-20010904/DTD/svg10.dtd">
<svg version="1.0" xmlns="http://www.w3.org/2000/svg"
 width="474.000000pt" height="474.000000pt" viewBox="0 0 474.000000 474.000000"
 preserveAspectRatio="xMidYMid meet">

<g transform="translate(0.000000,474.000000) scale(0.100000,-0.100000)"
fill="#ffffff" stroke="none">
<path d="M1010 4730 c0 -5 -7 -10 -16 -10 -31 0 -134 -63 -175 -107 -22 -24
-55 -74 -72 -111 l-32 -67 -3 -2025 c-2 -1485 0 -2041 8 -2085 23 -119 95
-218 199 -274 32 -17 66 -31 75 -31 9 0 16 -4 16 -10 0 -7 460 -10 1360 -10
770 0 1360 4 1360 9 0 5 14 11 30 15 41 8 128 65 168 110 42 48 77 118 91 184
16 75 16 4029 0 4104 -27 125 -99 216 -221 278 l-79 40 -1355 0 c-896 0 -1354
-3 -1354 -10z m2717 -208 c54 -28 90 -81 103 -151 16 -87 12 -3962 -4 -4024
-17 -63 -42 -96 -97 -127 l-44 -25 -1316 0 -1316 0 -49 30 c-36 22 -56 44 -74
80 l-25 50 -3 1985 c-2 1385 1 2001 8 2037 19 88 71 144 153 164 18 4 615 6
1327 6 l1295 -2 42 -23z"/>
<path d="M1052 4410 c-41 -38 -40 -92 1 -130 51 -48 137 -7 137 65 0 71 -87
112 -138 65z"/>
<path d="M3575 4405 c-17 -16 -25 -35 -25 -60 0 -91 126 -117 160 -34 36 86
-70 160 -135 94z"/>
<path d="M2280 4288 c-292 -18 -564 -142 -775 -353 -371 -372 -465 -915 -243
-1396 87 -189 248 -374 430 -495 79 -53 231 -126 311 -149 l56 -16 330 250
c181 137 343 257 360 265 104 54 252 -25 268 -143 9 -69 -5 -106 -76 -203 -38
-51 -68 -95 -66 -96 8 -8 155 76 225 129 478 355 633 1002 368 1534 -167 333
-491 582 -855 654 -119 24 -196 28 -333 19z m212 -828 c79 -24 145 -67 192
-125 207 -252 71 -620 -248 -676 -270 -47 -514 191 -475 464 16 118 107 254
202 304 104 54 223 66 329 33z"/>
<path d="M2670 2220 c-438 -327 -1083 -820 -1122 -858 -68 -66 -91 -120 -92
-212 -1 -56 5 -87 21 -121 72 -158 255 -230 403 -157 72 36 108 74 292 318 85
113 224 297 309 410 86 113 219 288 296 390 77 102 142 198 145 212 6 33 -14
83 -41 97 -51 28 -85 15 -211 -79z m-850 -942 c142 -72 92 -278 -67 -278 -78
0 -143 68 -143 150 0 67 41 120 108 140 43 13 55 11 102 -12z"/>
<path d="M1052 460 c-41 -38 -40 -92 1 -130 51 -48 137 -7 137 65 0 71 -87
112 -138 65z"/>
<path d="M3576 455 c-54 -50 -17 -145 56 -145 35 0 88 48 88 79 0 78 -87 119
-144 66z"/>
</g>
</svg>
