<?xml version="1.0" standalone="no"?>
<!DOCTYPE svg PUBLIC "-//W3C//DTD SVG 20010904//EN"
 "http://www.w3.org/TR/2001/REC-SVG-20010904/DTD/svg10.dtd">
<svg version="1.0" xmlns="http://www.w3.org/2000/svg"
 width="474.000000pt" height="474.000000pt" viewBox="0 0 474.000000 474.000000"
 preserveAspectRatio="xMidYMid meet">

<g transform="translate(0.000000,474.000000) scale(0.100000,-0.100000)"
fill="#ffffff" stroke="none">
<path d="M2530 4345 l0 -115 -39 0 -39 0 -4 55 c-6 69 -27 95 -78 95 -51 0
-72 -26 -78 -95 l-4 -55 -39 0 -39 0 0 53 c0 62 -27 97 -74 97 -56 0 -86 -40
-86 -116 l0 -34 -1025 0 -1025 0 0 -1975 0 -1975 2370 0 2370 0 0 1975 0 1975
-120 0 -120 0 0 53 c0 40 -5 59 -20 75 -22 24 -68 29 -100 12 -20 -11 -40 -66
-40 -112 0 -25 -3 -28 -35 -28 l-35 0 0 115 0 115 -870 0 -870 0 0 -115z m310
-75 l0 -40 -75 0 -75 0 0 40 0 40 75 0 75 0 0 -40z m318 -2 l3 -38 -80 0 -81
0 0 33 c0 19 3 37 7 41 4 4 39 5 78 4 l70 -3 3 -37z m320 0 l3 -38 -80 0 -81
0 0 33 c0 19 3 37 7 41 4 4 39 5 78 4 l70 -3 3 -37z m310 0 l3 -38 -80 0 -81
0 0 33 c0 19 3 37 7 41 4 4 39 5 78 4 l70 -3 3 -37z m320 0 l3 -38 -80 0 -81
0 0 33 c0 19 3 37 7 41 4 4 39 5 78 4 l70 -3 3 -37z m-3478 -868 l0 -669 78
-3 77 -3 5 -59 c6 -66 31 -96 81 -96 50 0 75 37 81 120 l3 35 78 3 77 3 0 669
0 670 75 0 75 0 2 -907 3 -908 76 -3 77 -3 4 -55 c6 -66 31 -97 79 -97 48 0
79 40 79 104 l0 49 80 0 80 0 0 910 0 910 1420 0 1420 0 0 -1820 0 -1820
-2210 0 -2210 0 0 40 0 40 74 0 c83 0 132 14 146 40 16 31 11 72 -12 97 -19
21 -30 23 -115 23 l-93 0 0 40 0 40 89 0 c109 0 141 18 141 80 0 62 -32 80
-141 80 l-89 0 0 40 0 40 92 0 c80 0 95 3 115 22 24 23 30 66 13 98 -14 26
-63 40 -146 40 l-74 0 0 35 0 35 74 0 c118 0 156 22 156 89 0 55 -30 71 -137
71 l-93 0 0 39 0 39 94 4 c112 4 136 18 136 79 0 61 -32 79 -141 79 l-89 0 0
790 0 790 89 0 c74 0 92 3 115 21 32 25 35 75 7 110 -17 22 -29 24 -115 27
l-96 4 0 39 0 39 95 0 c110 0 135 14 135 75 0 61 -25 75 -135 75 l-95 0 0 40
0 40 74 0 c118 0 156 22 156 89 0 52 -37 71 -141 71 l-89 0 0 120 0 120 235 0
235 0 0 -670z m318 78 l-3 -593 -75 0 -75 0 -3 593 -2 592 80 0 80 0 -2 -592z
m632 -238 l0 -830 -80 0 -80 0 0 823 c0 453 3 827 7 830 3 4 39 7 80 7 l73 0
0 -830z"/>
<path d="M2664 3896 c-50 -22 -102 -74 -119 -119 -14 -37 -15 -121 -13 -753
l3 -710 27 -42 c15 -22 49 -54 75 -69 l48 -28 680 -3 c487 -2 695 0 733 8 62
14 113 53 145 114 22 41 22 43 25 715 2 471 -1 691 -9 729 -13 64 -63 125
-124 153 -37 17 -84 19 -740 18 -563 0 -706 -2 -731 -13z m1430 -168 c14 -20
16 -102 16 -690 0 -655 0 -668 -20 -688 -20 -20 -33 -20 -694 -20 -600 0 -676
2 -690 16 -14 14 -16 90 -16 694 0 604 2 680 16 694 14 14 90 16 694 16 l679
0 15 -22z"/>
<path d="M3080 3595 l0 -74 -77 -3 -78 -3 -3 -77 -3 -78 -74 0 c-53 0 -75 -4
-76 -12 0 -7 -1 -42 -1 -78 l0 -65 76 -3 76 -3 0 -39 0 -40 -74 0 c-41 0 -76
-4 -78 -10 -1 -5 -2 -41 0 -80 l4 -70 74 0 74 0 0 -40 0 -40 -74 0 c-41 0 -76
-4 -78 -10 -1 -5 -1 -39 0 -75 l4 -65 74 0 74 0 0 -80 0 -80 80 0 80 0 0 -80
0 -80 80 0 80 0 0 81 0 80 38 -3 37 -3 3 -78 3 -78 77 3 77 3 3 78 3 77 34 0
c26 0 35 -4 36 -17 1 -10 2 -45 3 -78 l1 -60 77 -3 77 -3 3 78 3 78 77 3 77 3
3 77 3 77 78 3 77 3 0 74 0 75 -80 0 -80 0 0 40 0 40 80 0 80 0 0 80 0 80 -80
0 -80 0 0 40 0 40 80 0 80 0 0 80 0 80 -80 0 -80 0 0 80 0 80 -80 0 -80 0 0
75 0 75 -78 0 -79 0 0 -72 -1 -73 -36 -3 -36 -3 0 75 0 76 -80 0 -80 0 0 -75
0 -75 -40 0 -40 0 0 75 0 75 -80 0 -80 0 0 -75z m630 -552 l0 -318 -315 3
-315 3 0 314 0 315 315 0 315 0 0 -317z"/>
<path d="M2194 3512 c-55 -9 -76 -90 -34 -132 44 -44 130 -6 130 58 0 44 -49
82 -96 74z"/>
<path d="M1943 3350 c-49 -20 -59 -96 -17 -129 15 -12 37 -21 49 -21 35 0 75
37 75 70 0 42 -9 59 -41 75 -32 17 -35 17 -66 5z"/>
<path d="M4393 3350 c-49 -20 -59 -96 -17 -129 35 -28 69 -26 99 4 40 39 32
96 -16 120 -32 17 -35 17 -66 5z"/>
<path d="M2172 3264 c-49 -34 -48 -97 2 -130 47 -30 116 8 116 64 -1 31 -16
54 -47 70 -29 16 -44 15 -71 -4z"/>
<path d="M1922 3017 c-38 -40 -27 -102 21 -122 58 -24 107 10 107 74 0 61 -86
93 -128 48z"/>
<path d="M2165 3023 c-55 -54 -29 -133 45 -135 40 -1 80 36 80 74 0 61 -84
102 -125 61z"/>
<path d="M2163 2785 c-27 -19 -35 -63 -17 -96 23 -46 81 -53 119 -14 30 30 32
64 4 99 -24 30 -71 35 -106 11z"/>
<path d="M4370 2780 c-27 -27 -27 -83 2 -110 70 -65 173 38 108 108 -27 29
-83 29 -110 2z"/>
<path d="M282 2635 c-32 -14 -42 -32 -42 -75 0 -33 40 -70 75 -70 37 0 75 37
75 74 0 63 -49 95 -108 71z"/>
<path d="M2185 2560 c-55 -22 -66 -88 -21 -127 15 -12 38 -23 52 -23 34 0 74
42 74 78 0 27 -31 72 -50 72 -4 0 -14 2 -22 4 -7 3 -22 1 -33 -4z"/>
<path d="M265 2385 c-40 -39 -32 -96 17 -121 53 -28 108 6 108 67 0 70 -77
103 -125 54z"/>
<path d="M557 2403 c-4 -3 -7 -127 -7 -275 l0 -268 280 0 280 0 -2 273 -3 272
-271 3 c-149 1 -273 -1 -277 -5z m391 -270 l-3 -118 -115 0 -115 0 -3 118 -3
117 121 0 121 0 -3 -117z"/>
<path d="M2164 2307 c-63 -55 -5 -156 73 -126 56 21 71 82 28 124 -30 31 -66
32 -101 2z"/>
<path d="M262 2147 c-48 -50 -15 -127 53 -127 45 0 75 29 75 73 0 68 -83 103
-128 54z"/>
<path d="M2054 2011 c-2 -2 -4 -37 -4 -78 l0 -73 -34 0 c-46 0 -94 -18 -106
-40 -34 -64 9 -120 91 -120 l49 0 0 -80 0 -80 -50 0 c-61 0 -100 -31 -100 -78
0 -50 29 -74 93 -80 l57 -4 0 -79 0 -79 -55 0 c-66 0 -95 -22 -95 -73 0 -53
30 -77 95 -77 l55 0 0 -80 0 -80 -50 0 c-62 0 -100 -31 -100 -80 0 -49 38 -80
99 -80 l50 0 3 -77 3 -78 1105 0 1105 0 3 78 3 77 50 0 c61 0 99 31 99 80 0
49 -38 80 -100 80 l-50 0 0 80 0 80 53 0 c64 0 97 27 97 78 0 50 -29 72 -95
72 l-55 0 0 79 0 79 57 4 c66 6 93 30 93 83 0 47 -38 75 -101 75 l-49 0 0 80
0 80 49 0 c82 0 125 56 91 120 -12 22 -60 40 -106 40 l-34 0 0 75 0 75 -1106
2 c-608 2 -1108 1 -1110 -1z m236 -231 l0 -80 -40 0 -40 0 0 80 0 80 40 0 40
0 0 -80z m1580 0 l0 -80 -710 0 -710 0 0 80 0 80 710 0 710 0 0 -80z m238 -2
l3 -78 -41 0 -40 0 0 81 0 80 38 -3 37 -3 3 -77z m-1818 -318 l0 -80 -40 0
-40 0 0 80 0 80 40 0 40 0 0 -80z m1580 0 l0 -80 -710 0 -710 0 0 80 0 80 710
0 710 0 0 -80z m240 0 l0 -80 -40 0 -40 0 0 80 0 80 40 0 40 0 0 -80z m-1820
-315 l0 -75 -40 0 -40 0 0 75 0 75 40 0 40 0 0 -75z m1580 0 l0 -75 -710 0
-710 0 0 75 0 75 710 0 710 0 0 -75z m240 0 l0 -75 -40 0 -40 0 0 75 0 75 40
0 40 0 0 -75z m-1820 -315 l0 -80 -40 0 -40 0 0 80 0 80 40 0 40 0 0 -80z
m1580 0 l0 -80 -710 0 -710 0 0 80 0 80 710 0 710 0 0 -80z m240 0 l0 -80 -40
0 -40 0 0 80 0 80 40 0 40 0 0 -80z"/>
<path d="M995 1689 c-69 -39 -56 -130 21 -145 66 -13 116 79 68 126 -25 24
-64 33 -89 19z"/>
<path d="M1240 1693 c-57 -21 -70 -96 -24 -132 35 -28 69 -26 99 4 30 29 33
74 8 103 -19 23 -59 34 -83 25z"/>
<path d="M1454 1677 c-20 -17 -27 -33 -27 -57 0 -34 39 -80 68 -80 29 0 64 24
76 51 15 37 -2 82 -37 98 -36 16 -50 14 -80 -12z"/>
<path d="M948 1303 l-3 -78 -57 -3 c-48 -2 -61 -7 -78 -29 -11 -14 -20 -36
-20 -48 0 -12 9 -34 20 -48 17 -22 30 -27 78 -29 l57 -3 3 -37 c3 -38 3 -38
-36 -38 -86 0 -132 -41 -116 -104 9 -39 41 -56 101 -56 l53 0 0 -80 0 -80 315
0 315 0 0 80 0 80 53 0 c58 1 81 14 97 54 22 58 -27 106 -108 106 l-43 0 3 38
3 37 57 5 c69 6 92 25 92 76 0 52 -30 74 -100 74 l-54 0 0 80 0 80 -315 0
-314 0 -3 -77z m472 -278 l0 -195 -155 0 -155 0 0 195 0 195 155 0 155 0 0
-195z"/>
</g>
</svg>
