<?xml version="1.0" standalone="no"?>
<!DOCTYPE svg PUBLIC "-//W3C//DTD SVG 20010904//EN"
 "http://www.w3.org/TR/2001/REC-SVG-20010904/DTD/svg10.dtd">
<svg version="1.0" xmlns="http://www.w3.org/2000/svg"
 width="474.000000pt" height="474.000000pt" viewBox="0 0 474.000000 474.000000"
 preserveAspectRatio="xMidYMid meet">

<g transform="translate(0.000000,474.000000) scale(0.100000,-0.100000)"
fill="#ffffff" stroke="none">
<path d="M1980 4429 c-492 -63 -946 -319 -1260 -710 -194 -243 -320 -511 -387
-826 -25 -118 -27 -147 -28 -363 0 -247 6 -300 52 -485 147 -593 586 -1091
1163 -1318 232 -92 437 -130 700 -130 324 0 597 64 872 205 883 451 1284 1503
922 2418 -176 444 -501 800 -924 1013 -214 108 -411 168 -640 197 -97 12 -375
11 -470 -1z m505 -303 c448 -80 809 -307 1071 -672 124 -174 229 -425 270
-649 28 -151 26 -441 -4 -593 -70 -347 -224 -629 -479 -872 -231 -221 -496
-358 -816 -422 -151 -30 -442 -32 -592 -4 -652 121 -1162 612 -1305 1256 -82
368 -26 773 152 1110 254 480 723 797 1274 860 102 11 327 4 429 -14z"/>
<path d="M1521 3244 c-126 -34 -235 -124 -293 -241 l-33 -68 -5 -355 c-3 -195
-2 -384 2 -419 19 -168 153 -320 322 -366 82 -22 198 -16 276 14 109 42 207
139 253 251 21 53 22 68 25 439 2 331 0 391 -14 440 -66 227 -308 366 -533
305z m187 -304 c20 -13 41 -38 53 -65 19 -43 20 -64 17 -374 -3 -315 -4 -331
-24 -357 -37 -50 -70 -68 -124 -68 -54 0 -87 18 -124 68 -20 26 -21 42 -24
364 -2 306 -1 340 15 372 39 75 139 104 211 60z"/>
<path d="M2723 3250 c-260 -52 -424 -354 -315 -582 51 -108 124 -169 352 -292
161 -88 200 -118 200 -157 0 -71 -72 -142 -143 -142 -75 0 -147 59 -147 121 0
22 -1 22 -150 22 l-150 0 0 -29 c0 -45 36 -151 68 -202 46 -72 110 -128 192
-168 72 -35 79 -36 186 -36 107 0 112 1 185 37 130 64 221 180 250 316 32 156
-46 315 -203 415 -29 19 -105 62 -168 96 -63 34 -136 77 -162 97 -43 30 -48
38 -48 72 0 109 131 180 221 119 31 -21 60 -64 73 -109 5 -16 21 -18 146 -18
113 0 142 3 146 14 9 23 -16 126 -44 186 -35 72 -132 169 -202 202 -95 44
-190 57 -287 38z"/>
</g>
</svg>
