<?xml version="1.0" standalone="no"?>
<!DOCTYPE svg PUBLIC "-//W3C//DTD SVG 20010904//EN"
 "http://www.w3.org/TR/2001/REC-SVG-20010904/DTD/svg10.dtd">
<svg version="1.0" xmlns="http://www.w3.org/2000/svg"
 width="474.000000pt" height="474.000000pt" viewBox="0 0 474.000000 474.000000"
 preserveAspectRatio="xMidYMid meet">

<g transform="translate(0.000000,474.000000) scale(0.100000,-0.100000)"
fill="#ffffff" stroke="none">
<path d="M745 3398 c-3 -7 -4 -474 -3 -1038 l3 -1025 1625 0 1625 0 3 1038 2
1037 -1625 0 c-1291 0 -1627 -3 -1630 -12z m3105 -1028 l0 -890 -1480 0 -1480
0 0 890 0 890 1480 0 1480 0 0 -890z"/>
<path d="M1725 3064 c-253 -41 -465 -209 -558 -444 -123 -311 2 -674 292 -847
219 -131 480 -134 708 -8 103 57 218 178 270 285 60 123 77 194 76 325 -1 199
-65 350 -207 490 -130 128 -277 193 -456 200 -52 2 -108 1 -125 -1z m22 -282
l2 -132 -43 -18 c-62 -28 -112 -76 -142 -138 l-26 -54 -129 0 c-70 0 -130 4
-133 8 -8 13 20 108 49 167 62 128 177 227 318 276 45 16 87 27 92 26 6 -2 11
-58 12 -135z m319 78 c143 -70 271 -236 291 -375 l6 -45 -132 0 -131 0 -20 43
c-32 67 -76 113 -135 143 l-55 26 0 128 c0 69 2 129 5 132 12 11 92 -13 171
-52z m-186 -385 c79 -41 79 -169 0 -210 -72 -37 -159 -3 -179 71 -29 106 80
190 179 139z m-322 -218 c28 -62 76 -113 137 -142 l53 -26 1 -125 c1 -69 -1
-129 -4 -133 -3 -5 -24 -5 -47 0 -142 31 -285 137 -361 269 -29 51 -70 178
-61 191 3 5 63 9 134 9 l129 0 19 -43z m802 20 c0 -29 -30 -118 -59 -175 -36
-70 -143 -175 -220 -216 -67 -35 -169 -68 -183 -59 -5 2 -8 62 -8 133 l0 129
44 20 c56 24 116 84 144 144 l22 47 130 0 c130 0 130 0 130 -23z"/>
<path d="M2971 2942 c-72 -36 -76 -49 -79 -283 l-3 -209 360 0 c199 0 364 -1
369 -2 4 -2 8 85 10 192 2 186 1 197 -20 239 -40 78 -54 81 -348 81 -223 0
-259 -2 -289 -18z m509 -237 l0 -115 -219 0 -220 0 -3 105 c-2 58 -1 110 0
115 2 6 89 10 223 10 l219 0 0 -115z"/>
<path d="M2890 1925 l0 -75 370 0 370 0 0 75 0 75 -370 0 -370 0 0 -75z"/>
</g>
</svg>
