<?xml version="1.0" standalone="no"?>
<!DOCTYPE svg PUBLIC "-//W3C//DTD SVG 20010904//EN"
 "http://www.w3.org/TR/2001/REC-SVG-20010904/DTD/svg10.dtd">
<svg version="1.0" xmlns="http://www.w3.org/2000/svg"
 width="474.000000pt" height="474.000000pt" viewBox="0 0 474.000000 474.000000"
 preserveAspectRatio="xMidYMid meet">
<metadata>
Created by potrace 1.16, written by Peter Selinger 2001-2019
</metadata>
<g transform="translate(0.000000,474.000000) scale(0.100000,-0.100000)"
fill="#ffffff" stroke="none">
<path d="M3660 4730 c0 -5 -8 -10 -17 -10 -10 0 -43 -12 -73 -26 -48 -22 -271
-241 -1738 -1707 -926 -925 -1706 -1708 -1733 -1740 -26 -31 -56 -80 -66 -107
-10 -28 -21 -50 -25 -50 -5 0 -8 -45 -8 -100 0 -60 4 -100 10 -100 6 0 10 -6
10 -12 0 -25 47 -113 76 -144 23 -25 42 -33 84 -39 30 -4 64 -14 76 -22 25
-16 49 -67 39 -83 -19 -31 23 -84 233 -292 206 -204 272 -258 335 -273 15 -4
27 -11 27 -16 0 -5 43 -9 95 -9 57 0 95 4 95 10 0 6 7 10 15 10 38 0 127 59
208 138 l87 86 42 -40 c22 -21 78 -76 124 -121 133 -133 65 -176 672 430 283
281 520 525 527 541 22 50 3 82 -115 201 -60 61 -110 114 -110 118 0 12 89
105 123 129 l28 20 119 -116 c114 -112 120 -116 162 -116 l43 0 867 868 868
867 0 42 c0 23 -3 43 -7 45 -5 2 -60 56 -122 120 l-115 117 85 86 c77 78 139
168 139 201 0 8 5 14 10 14 6 0 10 40 10 100 0 60 -4 100 -10 100 -5 0 -10 7
-10 16 0 9 -14 42 -30 73 -22 41 -90 116 -253 279 l-223 223 -57 8 c-78 11
-107 38 -107 102 0 36 -6 55 -25 78 -25 29 -135 91 -162 91 -7 0 -13 5 -13 10
0 6 -38 10 -95 10 -57 0 -95 -4 -95 -10z m164 -200 c18 -6 28 -21 37 -52 31
-117 116 -200 229 -223 28 -5 73 -45 223 -193 104 -103 197 -204 208 -224 24
-47 25 -123 2 -166 -22 -39 -3407 -3427 -3444 -3447 -42 -22 -101 -28 -149
-15 -39 10 -72 39 -242 208 -109 108 -198 204 -198 214 0 26 -38 120 -58 144
-36 43 -112 92 -161 104 -42 10 -51 16 -60 42 -15 44 -14 102 4 146 22 52
3393 3426 3450 3453 43 20 119 25 159 9z m609 -1398 l67 -67 -770 -770 -770
-770 -72 72 -72 73 764 765 c421 420 770 765 775 765 6 0 41 -30 78 -68z
m-1978 -1972 l70 -70 -420 -420 c-231 -231 -424 -420 -429 -420 -10 0 -136
125 -136 135 0 8 832 845 840 845 3 0 37 -32 75 -70z"/>
<path d="M3605 4131 c-43 -27 -586 -578 -620 -628 -20 -31 -26 -49 -21 -68 9
-37 433 -461 466 -466 14 -2 36 -3 50 -1 31 5 632 600 655 649 28 59 12 81
-212 304 -115 114 -218 212 -230 218 -31 16 -54 14 -88 -8z m83 -698 c-123
-123 -227 -223 -231 -223 -5 0 -65 55 -133 122 l-124 123 227 227 228 228 127
-127 128 -128 -222 -222z"/>
<path d="M2115 2648 c-181 -182 -316 -327 -324 -345 -7 -18 -11 -43 -7 -56 7
-30 427 -449 461 -460 14 -5 38 -6 53 -2 30 7 623 591 648 637 8 15 14 42 14
60 0 29 -24 56 -223 255 l-223 223 -44 0 -45 0 -310 -312z m485 -53 l125 -125
-227 -227 -227 -227 -128 127 -127 127 224 225 c124 124 227 225 230 225 3 0
61 -56 130 -125z"/>
<path d="M1235 1761 c-42 -26 -584 -577 -619 -628 -21 -31 -27 -49 -22 -68 4
-15 96 -116 226 -246 l219 -219 47 0 48 0 313 312 c207 207 316 323 323 344 7
22 7 40 0 60 -12 33 -400 428 -442 450 -36 19 -57 18 -93 -5z m295 -476 c0
-12 -431 -445 -444 -445 -5 0 -64 55 -132 122 l-123 123 227 227 227 228 122
-122 c68 -68 123 -127 123 -133z"/>
</g>
</svg>
