<?xml version="1.0" standalone="no"?>
<!DOCTYPE svg PUBLIC "-//W3C//DTD SVG 20010904//EN"
 "http://www.w3.org/TR/2001/REC-SVG-20010904/DTD/svg10.dtd">
<svg version="1.0" xmlns="http://www.w3.org/2000/svg"
 width="474.000000pt" height="474.000000pt" viewBox="0 0 474.000000 474.000000"
 preserveAspectRatio="xMidYMid meet">
<metadata>
Created by potrace 1.16, written by Peter Selinger 2001-2019
</metadata>
<g transform="translate(0.000000,474.000000) scale(0.100000,-0.100000)"
fill="#ffffff" stroke="none">
<path d="M502 4720 c-9 -16 -12 -460 -12 -2094 0 -1873 2 -2076 16 -2090 11
-12 36 -16 90 -16 l74 0 0 -260 0 -260 1175 0 1175 0 0 260 0 260 215 0 215 0
0 -260 0 -260 310 0 310 0 0 260 0 260 74 0 c54 0 79 4 90 16 14 14 16 217 16
2092 -1 1711 -3 2080 -14 2095 -12 16 -113 17 -1867 17 -1839 0 -1854 0 -1867
-20z m3228 -1315 l0 -835 -1360 0 -1360 0 0 835 0 835 1360 0 1360 0 0 -835z
m30 -1400 l0 -185 -1375 0 -1375 0 0 185 0 185 1375 0 1375 0 0 -185z m-2560
-1760 l0 -115 -200 0 -200 0 0 115 0 115 200 0 200 0 0 -115z m570 0 l0 -115
-225 0 -225 0 0 115 0 115 225 0 225 0 0 -115z m570 0 l0 -115 -220 0 -220 0
0 115 0 115 220 0 220 0 0 -115z m550 0 l0 -115 -210 0 -210 0 0 115 0 115
210 0 210 0 0 -115z m1050 0 l0 -115 -180 0 -180 0 0 115 0 115 180 0 180 0 0
-115z"/>
<path d="M1530 3629 c-104 -11 -193 -66 -229 -142 -47 -100 -36 -195 33 -263
36 -37 58 -47 190 -90 168 -54 206 -78 206 -129 0 -18 -9 -43 -19 -56 -17 -21
-30 -24 -99 -27 -92 -5 -177 18 -256 68 l-46 30 -36 -72 c-40 -80 -43 -73 51
-118 133 -66 330 -79 443 -30 157 68 194 283 67 388 -26 20 -77 43 -154 68
-182 58 -201 66 -221 92 -52 65 13 142 118 142 50 0 136 -26 188 -56 l42 -25
25 43 c52 91 51 86 15 108 -87 53 -213 81 -318 69z"/>
<path d="M2258 3628 c-77 -10 -141 -42 -186 -94 -89 -100 -82 -258 15 -327 21
-15 98 -47 173 -72 74 -25 150 -54 167 -65 58 -35 57 -111 -2 -136 -77 -32
-213 -10 -323 51 -24 14 -48 25 -53 25 -9 0 -69 -112 -69 -129 0 -11 71 -52
121 -71 168 -61 364 -51 462 24 82 63 108 206 54 299 -40 69 -93 96 -304 157
-40 11 -86 33 -104 47 -28 24 -31 31 -26 67 7 50 33 73 94 82 57 8 136 -9 210
-46 65 -33 64 -33 104 53 22 46 22 47 3 62 -70 52 -228 87 -336 73z"/>
<path d="M2770 3205 l0 -425 193 0 c128 0 209 5 242 14 190 50 295 197 295
413 0 219 -133 385 -332 413 -35 5 -138 10 -230 10 l-168 0 0 -425z m426 251
c76 -35 117 -96 133 -192 18 -117 -15 -224 -90 -287 -49 -42 -106 -57 -219
-57 l-80 0 0 280 0 280 103 0 c86 0 110 -4 153 -24z"/>
</g>
</svg>
